Patient4_TMGait_0pt2_03_right_16_GRF.mot
version=1
nRows=32
nColumns=19
inDegrees=no
endheader
time	F1x	F1y	F1z	M1x	M1y	M1z	F2x	F2y	F2z	M2x	M2y	M2z	EC1x	EC1y	EC1z	EC2x	EC2y	EC2z
34.41	-23.3525	871.0497	54.1815	-317.6608	-63.606	958.5278	-10.6533	2.9303	1.6098	1.8199	2.0703	0.48198	-0.0592	0.0182	-0.0073	-0.0462	0.0165	0.9585
34.4305	-23.6229	886.5001	56.4027	-323.6509	-65.682	974.9378	-7.6976	3.7491	1.0261	1.8059	1.6284	2.1346	-0.0592	0.0182	-0.0073	-0.0462	0.0165	0.9585
34.451	-23.839	899.5385	58.7399	-328.6382	-67.7631	988.0487	-4.9023	3.9025	0.5557	1.6274	1.1336	3.0139	-0.0592	0.0182	-0.0073	-0.0462	0.0165	0.9585
34.4715	-23.7487	906.8136	60.9399	-331.3766	-69.5155	994.1594	-2.5303	3.616	0.21112	1.3685	0.66231	3.2916	-0.0592	0.0182	-0.0073	-0.0462	0.0165	0.9585
34.492	-23.073	905.6287	62.7214	-330.8992	-70.5733	990.3831	-0.71874	3.1331	-0.022557	1.104	0.27348	3.2111	-0.0592	0.0182	-0.0073	-0.0462	0.0165	0.9585
34.5125	-21.5927	894.6459	63.8342	-326.7536	-70.6216	975.369	0.53621	2.5994	-0.16833	0.86977	-0.012295	2.9402	-0.0592	0.0182	-0.0073	-0.0462	0.0165	0.9585
34.533	-19.2032	874.1793	64.1138	-319.0928	-69.473	949.592	1.317	2.0821	-0.24892	0.67229	-0.20026	2.5697	-0.0592	0.0182	-0.0073	-0.0462	0.0165	0.9585
34.5535	-15.9257	846.0963	63.5038	-308.6299	-67.098	915.2171	1.7386	1.5851	-0.2861	0.49885	-0.30677	2.1289	-0.0592	0.0182	-0.0073	-0.0462	0.0165	0.9585
34.574	-11.8963	813.3913	62.0445	-296.4798	-63.6108	875.6145	1.9173	1.0664	-0.29589	0.32413	-0.35525	1.5988	-0.0592	0.0182	-0.0073	-0.0462	0.0165	0.9585
34.5945	-7.3314	779.6018	59.8385	-283.9461	-59.2188	834.7178	1.9528	0.45308	-0.29007	0.11579	-0.36813	0.91954	-0.0592	0.0182	-0.0073	-0.0462	0.0165	0.9585
34.615	-2.4772	748.2393	57.0224	-272.3178	-54.1705	796.4052	1.9251	-0.33545	-0.27514	-0.15883	-0.36534	0.015967	-0.0592	0.0182	-0.0073	-0.0462	0.0165	0.9585
34.6355	2.4215	722.2736	53.7569	-262.6812	-48.7279	763.941	1.8917	-1.3656	-0.25228	-0.52561	-0.36791	-1.1698	-0.0592	0.0182	-0.0073	-0.0462	0.0165	0.9585
34.656	7.1255	703.6917	50.2288	-255.7582	-43.165	739.5041	1.8851	-2.6549	-0.21753	-0.99148	-0.39348	-2.6398	-0.0592	0.0182	-0.0073	-0.0462	0.0165	0.9585
34.6765	11.4191	693.2688	46.6692	-251.8196	-37.7833	723.963	1.9179	-4.1356	-0.1614	-1.5318	-0.45483	-4.3067	-0.0592	0.0182	-0.0073	-0.0462	0.0165	0.9585
34.697	15.139	690.5964	43.3568	-250.6943	-32.9055	716.9087	1.9829	-5.6041	-0.074504	-2.0718	-0.55929	-5.9404	-0.0592	0.0182	-0.0073	-0.0462	0.0165	0.9585
34.7175	18.1906	694.3019	40.5904	-251.8538	-28.8506	716.8923	2.0551	-6.6713	0.048932	-2.4681	-0.70469	-7.1142	-0.0592	0.0182	-0.0073	-0.0462	0.0165	0.9585
34.738	20.5475	702.3361	38.6448	-254.5216	-25.8941	721.7457	2.0918	-6.708	0.21044	-2.4898	-0.87586	-7.1348	-0.0592	0.0182	-0.0073	-0.0462	0.0165	0.9585
34.7585	22.2465	712.2726	37.7131	-257.7899	-24.2119	728.9072	2.0318	-4.8084	0.40226	-1.8042	-1.0396	-5.0028	-0.0592	0.0182	-0.0073	-0.0462	0.0165	0.9585
34.779	23.3837	721.639	37.8372	-260.749	-23.8121	735.7703	1.7906	0.20566	0.60165	0.023333	-1.1366	0.57856	-0.0592	0.0182	-0.0073	-0.0462	0.0165	0.9585
34.7995	24.1111	728.2813	38.8947	-262.6225	-24.5224	740.0651	1.2644	9.7012	0.76842	3.4987	-1.0775	11.1098	-0.0592	0.0182	-0.0073	-0.0462	0.0165	0.9585
34.82	24.5985	730.5152	40.6242	-262.8197	-26.0255	740.0328	0.33836	25.044	0.84119	9.1268	-0.74118	28.0902	-0.0592	0.0182	-0.0073	-0.0462	0.0165	0.9585
34.8405	24.9593	726.983	42.6741	-260.8787	-27.931	734.3051	-1.095	47.241	0.73106	17.2795	0.021187	52.6119	-0.0592	0.0182	-0.0073	-0.0462	0.0165	0.9585
34.861	25.212	716.4968	44.6671	-256.403	-29.8551	721.7431	-3.1022	76.3721	0.31591	27.9874	1.3688	84.7265	-0.0592	0.0182	-0.0073	-0.0462	0.0165	0.9585
34.8815	25.2886	698.2153	46.2709	-249.1182	-31.4938	701.5944	-5.6934	110.9909	-0.55146	40.7146	3.4455	122.7946	-0.0592	0.0182	-0.0073	-0.0462	0.0165	0.9585
34.902	25.0797	672.1591	47.259	-239.0562	-32.6683	673.9683	-8.7706	148.1502	-2.0822	54.353	6.4014	163.5396	-0.0592	0.0182	-0.0073	-0.0462	0.0165	0.9585
34.9225	24.4802	639.6472	47.5374	-226.7166	-33.3296	640.2384	-12.067	184.6974	-4.3216	67.7244	10.1449	203.4725	-0.0592	0.0182	-0.0073	-0.0462	0.0165	0.9585
34.943	23.4344	603.1036	47.1208	-212.9958	-33.5128	602.8321	-15.118	219.1995	-7.0514	80.3021	14.2555	240.9739	-0.0592	0.0182	-0.0073	-0.0462	0.0165	0.9585
34.9635	21.9588	565.1364	46.0742	-198.8525	-33.2705	564.3118	-17.3855	251.7846	-9.9605	92.1473	18.2126	276.1182	-0.0592	0.0182	-0.0073	-0.0462	0.0165	0.9585
34.984	20.1368	527.7643	44.4898	-185.0226	-32.6518	526.6407	-18.4836	282.8571	-12.7998	103.4231	21.6297	309.309	-0.0592	0.0182	-0.0073	-0.0462	0.0165	0.9585
35.0045	18.0819	492.1946	42.5214	-171.9349	-31.749	490.9818	-18.3095	312.4066	-15.4658	114.1296	24.3827	340.554	-0.0592	0.0182	-0.0073	-0.0462	0.0165	0.9585
35.025	15.912	459.0021	40.3617	-159.7773	-30.6941	457.868	-17.0269	339.9676	-18.004	124.0873	26.6013	369.4139	-0.0592	0.0182	-0.0073	-0.0462	0.0165	0.9585
35.0455	13.7599	428.4653	38.1757	-148.6279	-29.5962	427.5152	-14.9564	364.9655	-20.4741	133.0772	28.4824	395.344	-0.0592	0.0182	-0.0073	-0.0462	0.0165	0.9585
